<?xml version="1.0" encoding="UTF-8"?>
<svg width="752pt" height="752pt" version="1.1" viewBox="0 0 752 752" xmlns="http://www.w3.org/2000/svg">
 <g>
  <path d="m454.93 360.21v31.574h-63.141v63.141h-31.574v-63.141h-63.801v-31.574h63.801v-63.801h31.574v63.801z"/>
  <path d="m459.54 566.75h-167.07c-59.199 0-107.21-48.016-107.21-107.21v-167.07c0-59.199 48.016-107.21 107.21-107.21h167.07c59.199 0 107.21 48.016 107.21 107.21v167.07c-0.003906 59.195-48.02 107.21-107.22 107.21zm-167.07-349.93c-41.438 0-75.641 34.203-75.641 75.641v167.07c0 41.438 34.203 75.641 75.641 75.641h167.07c41.438 0 75.641-34.203 75.641-75.641l-0.003907-167.07c0-41.438-34.203-75.641-75.641-75.641z"/>
 </g>
</svg>
